<svg version="1.2" baseProfile="tiny-ps" xmlns="http://www.w3.org/2000/svg" viewBox="0 0 231 58" width="231" height="58">
	<title>fka_logo_new-svg</title>
	<defs>
		<clipPath clipPathUnits="userSpaceOnUse" id="cp1">
			<path d="m0-19h230.33v76.23h-230.33v-76.23z" />
		</clipPath>
	</defs>
	<style>
		tspan { white-space:pre }
		.s0 { fill: #cfeffd } 
	</style>
	<g id="Clip-Path: Group_54" clip-path="url(#cp1)">
		<g id="Group_54">
			<path id="Path_18" fill-rule="evenodd" class="s0" d="m134.04 5.9c0 0-10.25 10.19-13.64 16.31c-0.99 1.79-1.37 2.58-1.94 3.72c-0.04 0.13-0.06 0.26-0.06 0.4c0 0.14 0.03 0.27 0.08 0.4c0.05 0.13 0.12 0.24 0.21 0.35c0.09 0.1 0.2 0.19 0.32 0.25c0.09 0.05 0.18 0.08 0.28 0.1c0.1 0.02 0.2 0.02 0.3 0c0.1-0.02 0.2-0.05 0.28-0.1c0.09-0.05 0.17-0.11 0.24-0.18c-0.04-0.29-0.06-0.58-0.06-0.87c0-0.29 0.02-0.58 0.07-0.87c0.04-0.29 0.11-0.57 0.19-0.85c0.09-0.28 0.19-0.55 0.32-0.81c2.65-5.13 10.95-13.56 10.53-13.1c-0.42 0.46-0.8 0.95-1.16 1.46c-0.36 0.51-0.69 1.04-0.99 1.58c-0.3 0.55-0.57 1.11-0.81 1.68c-0.24 0.58-0.44 1.16-0.61 1.76c1.67 0.59 3.53 0.06 4.9-0.32c0.25-0.08 0.52-0.17 0.54-0.18h0.03c0.06-0.02 10.14-3.78 18.82-6.17c6.51-1.79 71.8-8.64 71.8-8.64c0 0-58.88 8.12-67.71 10.6c-6.63 1.86-9.96 3.85-11.24 7.46c-1.23 3.45 0.57 7 2.62 13.22c2.05 6.22 3.71 8.72 3.71 8.72l2.95-18.57c-0.09-0.17-0.19-0.34-0.3-0.5c-0.11-0.16-0.23-0.31-0.35-0.46c-0.13-0.15-0.26-0.29-0.4-0.42c-0.14-0.13-0.29-0.26-0.45-0.37c-0.19-0.12-0.39-0.24-0.59-0.34c-0.2-0.11-0.41-0.21-0.62-0.3c-0.21-0.09-0.42-0.17-0.64-0.25c-0.22-0.07-0.44-0.14-0.66-0.2c0.62-0.49 1.27-0.95 1.93-1.38c0.66-0.43 1.35-0.83 2.05-1.2c0.7-0.37 1.42-0.71 2.15-1.01c0.73-0.3 1.47-0.58 2.23-0.81c0.99-0.28 1.99-0.53 2.99-0.76c1-0.23 2.01-0.43 3.02-0.61c1.01-0.18 2.03-0.33 3.05-0.46c1.02-0.13 2.04-0.23 3.07-0.31c0 0-7.05 1.73-11.13 7.48c-0.78 1.1-1.86 5.99-2.22 7.23c0.19-0.11 0.38-0.23 0.55-0.35c0.18-0.13 0.35-0.26 0.51-0.41c0.16-0.15 0.32-0.3 0.47-0.46c0.15-0.16 0.28-0.33 0.41-0.51c0.16-0.22 0.32-0.43 0.47-0.65c0.15-0.22 0.3-0.44 0.45-0.67c0.14-0.23 0.29-0.45 0.42-0.68c0.14-0.23 0.27-0.46 0.4-0.7c0.07-0.12 0.38-0.85 0.71-1.48c0.27-0.64 0.61-1.26 1.02-1.82c0.4-0.57 0.87-1.09 1.39-1.56c0.52-0.47 1.09-0.88 1.7-1.22c0.61-0.34 1.25-0.62 1.92-0.82c4.74-1.64 22.54-4.57 22.54-4.57c0 0-12.41 3.41-15.04 9.68c-3.65 8.7-3.67 13.54-2.43 20.55c1.24 7.01 6.59 7.97 6.59 7.97l-25.47 0.45c0 0 6.02-0.83 9.73-3c-0.14-0.19-0.29-0.4-0.31-0.43c-0.23-0.26-0.47-0.52-0.71-0.78c-0.24-0.25-0.49-0.5-0.74-0.75c-0.25-0.24-0.51-0.48-0.77-0.72c-0.26-0.24-0.53-0.47-0.8-0.69c-0.7-0.6-1.83-1.51-2.77-2.21c-0.13-0.08-0.28-0.14-0.43-0.22c-0.04-0.02-0.08-0.04-0.12-0.06c-0.04-0.02-0.08-0.04-0.12-0.06c-0.04-0.02-0.08-0.04-0.12-0.06c-0.04-0.02-0.08-0.04-0.12-0.05c-0.75-0.24-1.46-0.13-1.46 1.21c0 2.84 6.77 4.35 6.77 4.35l-10.65 3.37l-8.57-12.94c-0.54 0.41-1.05 0.87-1.52 1.37c-0.47 0.5-0.89 1.03-1.28 1.59c-0.38 0.56-0.72 1.16-1 1.78c-0.29 0.62-0.52 1.26-0.7 1.92c-0.53 2.43 0.77 6.3 0.77 6.3l-21.21-4.81c1.78 0.39 12.56 2.62 14-0.93c1.86-4.58-5.3-22.65-8.28-20.33c-3.67 2.85 1.64 10.93 1.29 10.54c-0.35-0.38-0.69-0.78-1.01-1.18c-0.32-0.41-0.63-0.82-0.93-1.25c-0.29-0.43-0.57-0.86-0.84-1.31c-0.26-0.45-0.51-0.9-0.74-1.37c0 0-0.01-0.01-0.01-0.01c-0.08-0.16-0.16-0.32-0.23-0.49c-0.11-0.17-0.23-0.33-0.35-0.49c-0.1-0.18-0.21-0.35-0.33-0.52c-0.12-0.17-0.25-0.33-0.39-0.48c-0.14-0.15-0.29-0.3-0.44-0.44c-0.15-0.14-0.32-0.27-0.49-0.39c-0.08-0.06-0.17-0.1-0.26-0.14c-0.09-0.04-0.19-0.06-0.28-0.07c-0.1-0.01-0.2-0.02-0.29-0.01c-0.1 0.01-0.19 0.03-0.29 0.06c-0.03 0.02-0.05 0.04-0.08 0.06c-0.03 0.02-0.05 0.04-0.08 0.06c-0.03 0.02-0.05 0.04-0.07 0.07c-0.02 0.02-0.05 0.05-0.07 0.07c-0.76 1.59-1.12 2.46-1.12 2.46c0 0 2.01-5.91 1.69-9.01c-0.33-3.1-0.89-3.18-2.16-4.09c-1.28-0.92-5.45-0.22-5.63 6.76c-0.21 8.47 0.59 21.53 0.59 21.53l17.19 4.67c-0.94-0.01-1.88-0.03-2.83-0.06c-0.94-0.03-1.88-0.08-2.82-0.14c-0.94-0.06-1.88-0.14-2.82-0.22c-0.94-0.09-1.88-0.19-2.81-0.31c-7.44-1.08-8.31-4.03-8.72-3.52c-0.41 0.51-0.87 0.98-1.37 1.39c-0.51 0.41-1.06 0.77-1.64 1.06c-0.58 0.29-1.2 0.52-1.83 0.68c-0.63 0.16-1.28 0.25-1.94 0.27c-4.8 0.37-12.33 0.73-12.33 0.73l16.45-4.56c0 0 0.3-14.96 0.15-22.43c-0.14-7.02-4.22-5.35-4.64-5.32c-0.42 0.03-0.83 0.14-1.21 0.31c-0.38 0.17-0.74 0.4-1.04 0.68c-0.31 0.28-0.57 0.62-0.77 0.98c-0.2 0.37-0.34 0.77-0.4 1.18c-0.54 2.99 1.55 9 1.55 9c0 0-3.96-7.79-5.88-11.82c-2.19-4.58-9.14-11.65-9.14-11.65c0 0 12.02 5.74 22.99 6.35c1.23-0.64 1.15-1.42 0.17-2.03c-0.15-0.08-0.28-0.18-0.4-0.29c-0.12-0.12-0.23-0.25-0.31-0.39c-0.09-0.14-0.15-0.3-0.2-0.46c-0.05-0.16-0.07-0.33-0.07-0.49c0-0.02 0.01-0.05 0.01-0.07c0-0.02 0.01-0.05 0.01-0.07c0-0.02 0.01-0.04 0.01-0.07c0.01-0.02 0.01-0.04 0.02-0.07c-0.01-0.05-0.02-0.12-0.03-0.17l0.06 0c0.1-0.45 0.36-0.85 0.74-1.12c0.38-0.27 0.84-0.39 1.3-0.33c0.46 0.05 0.88 0.28 1.19 0.63c0.3 0.35 0.47 0.8 0.45 1.27c0 0.16-0.02 0.33-0.07 0.49c-0.04 0.16-0.11 0.31-0.19 0.45c-0.08 0.14-0.19 0.27-0.3 0.39c-0.12 0.12-0.25 0.21-0.39 0.3c-0.01 0.01-0.01 0.02-0.03 0.03c-0.87 0.45-0.96 1.45 0.32 2.07c11.05-0.19 24.79-6.97 24.79-6.97m-16.67 40.47l0.25 0.06c-0.16-0.04-0.25-0.06-0.25-0.06zm-99.78-33.92c5.74 2.56 11.38 0.28 14.96 6.7c3.02 5.4-8.65 9.06-9.39 8.05c0.22 0.27 6.78-2.01 3.9-6.42c-1.64-2.51-5.23-4.25-7.7-0.94c-1.97 2.64-0.17 12.28-0.17 12.28c0 0 5.14 0.95 6.84 0.15c3.13-1.46-0.9-3.15-0.9-3.15l5.38-0.14c2.87-0.31 4.3-2.97 5.09-5.48c-0.07-0.66-0.16-1.39-0.22-2.02c-0.46-4.67-5.97-10.7-5.97-10.7c0 0 5.79 2.57 8.91 3.13c4.22 0.76 9.53 2.07 9.53 2.07c0 0-6.28 1.51-7 5.5c-0.72 3.99-0.14 11.34 0.23 10.6c0.37-0.74 0.75-1.48 1.16-2.2c0.41-0.72 0.83-1.44 1.27-2.14c0.44-0.7 0.9-1.39 1.38-2.07c0.48-0.68 0.97-1.34 1.49-2c2.66-3.04 4.72-2.03 5-4.48c0.59-5.02-10.31-8.56-10.31-8.56l23.89 4.64c0 0-1.62 0.73-3.3 1.56c0.04 0.02 0.07 0.05 0.12 0.07c0.29 0.07 0.57 0.13 0.86 0.17c0.29 0.05 0.58 0.08 0.87 0.11c0.29 0.02 0.59 0.04 0.88 0.04c0.29 0 0.59-0.01 0.88-0.03c0.41 0.01 0.82 0.01 1.23-0.02c0.41-0.02 0.82-0.06 1.23-0.11c0.41-0.05 0.81-0.12 1.21-0.21c0.4-0.08 0.8-0.18 1.19-0.3c0.1-0.03 0.19-0.08 0.28-0.12c-0.36-2.01-4.77-3.53-4.77-3.53l-61.38-11.6c0 0 55.05 8.09 61.26 9.18c4.77 0.83 9.2 2.2 12.04 4.11c4.31 2.9 2.58 5.28 4.81 4.65c7.05-2 1.66-10.69 0.85-11.63c0.87 0.88 7.24 7.39 9.72 12.19c2.65 5.14-4.75 12.23-4.75 12.23c0 0 0.4-0.56 0.93-1.43c1.4-2.32 3.62-6.86 1.03-8.9c-5.91-4.67-7.53 3.85-8.77 8.24c-1.32 4.7 1.63 16.38 1.63 16.38l19.86-0.63c0 0-15.69 2.06-22.85 4.62c-0.57 0.19-1.14 0.38-1.71 0.59c-0.57 0.21-1.13 0.42-1.69 0.65c-0.56 0.22-1.11 0.46-1.67 0.7c-0.55 0.24-1.1 0.49-1.64 0.75l2.75-4.12c0 0 2.1-10.8-1.74-10.98c-5.64-0.27-6.19 3.83-6.64 7.76c-0.18 1.59 0.72 2.61 1.7 3.84c0.26 0.31 0.52 0.62 0.79 0.92c0.27 0.3 0.54 0.6 0.81 0.89c0.28 0.29 0.56 0.58 0.84 0.87c0.29 0.28 0.58 0.57 0.87 0.84c-0.5-0.42-1.03-0.8-1.58-1.13c-0.56-0.33-1.15-0.61-1.75-0.84c-0.61-0.23-1.23-0.41-1.87-0.53c-0.64-0.12-1.28-0.19-1.93-0.21c-2.8-0.1-0.83 0.47-5.09 0.62c-4.25 0.15-11.9 0-11.9 0l1.93-3.21c0 0-0.47-2.17-1.25-4.7c-0.11-0.37-0.23-0.74-0.35-1.1c-0.12-0.37-0.25-0.73-0.39-1.09c-0.14-0.36-0.28-0.72-0.43-1.08c-0.15-0.36-0.3-0.71-0.46-1.06c-0.06 0.03-0.13 0.05-0.19 0.09c-0.06 0.03-0.12 0.07-0.18 0.1c-0.06 0.04-0.11 0.08-0.17 0.12c-0.05 0.04-0.1 0.09-0.15 0.14c-0.05 0.08-0.1 0.16-0.15 0.24c-0.04 0.08-0.08 0.17-0.11 0.26c-0.03 0.09-0.06 0.18-0.08 0.27c-0.02 0.09-0.04 0.18-0.04 0.28c0 0.05 0 0.09 0 0.14c0 0.05 0 0.09 0 0.14c0 0.05 0 0.09-0.01 0.14c0 0.05-0.01 0.09-0.01 0.14c-0.12 0-0.28-1.05-0.28-1.17c0-0.76 0.56-1.55 0.45-2.29c-0.02-0.07-0.03-0.13-0.06-0.2c-0.02-0.06-0.05-0.13-0.07-0.19c-0.03-0.06-0.06-0.12-0.09-0.18c-0.03-0.06-0.07-0.12-0.1-0.18c0-0.01-0.01-0.02-0.01-0.03c-0.05-0.06-0.09-0.15-0.14-0.21c-2.42-2.78-4.95-2.46-5.39 0.31c-0.44 2.77 0.84 9.27 0.84 9.27l4.76 5.08c0 0-1.22-0.22-5.29-1.28c-4.17-1.08-4.8 0.36-8.37 0.8c-0.72 0.09-1.43 0.17-2.15 0.23c-0.72 0.06-1.44 0.11-2.16 0.15c-0.72 0.03-1.44 0.05-2.16 0.06c-0.72 0.01-1.44 0-2.16-0.02c0.64-0.01 1.27-0.04 1.9-0.08c0.63-0.05 1.27-0.11 1.9-0.19c0.63-0.08 1.26-0.18 1.88-0.3c0.62-0.12 1.25-0.26 1.86-0.41c0.47-0.1 0.92-0.26 1.35-0.48c0.43-0.22 0.82-0.49 1.18-0.81c0.36-0.32 0.67-0.68 0.93-1.08c0.26-0.4 0.47-0.83 0.62-1.29c1.6-4.27 0.7-19.62 0.43-19.35c-0.28 0.27-0.54 0.55-0.8 0.85c-0.26 0.29-0.5 0.59-0.73 0.9c-0.23 0.31-0.46 0.63-0.67 0.95c-0.21 0.33-0.41 0.66-0.6 1c-0.17 0.38-0.35 0.76-0.53 1.14c-0.18 0.38-0.37 0.75-0.57 1.12c-0.2 0.37-0.4 0.74-0.61 1.1c-0.21 0.36-0.43 0.72-0.65 1.07c-0.2 0.28-0.4 0.56-0.59 0.85c-0.19 0.29-0.38 0.58-0.56 0.87c-0.18 0.29-0.36 0.59-0.52 0.89c-0.17 0.3-0.33 0.6-0.49 0.91l-0.05 0.13l0.01-0.06c-1.64 3.11-5 6.43-4.29 8.2c0.62 0.26 1.25 0.5 1.88 0.73c0.63 0.23 1.27 0.43 1.91 0.62c0.64 0.19 1.29 0.36 1.95 0.52c0.65 0.15 1.31 0.29 1.97 0.41c-1-0.03-2-0.03-3 0c-1 0.03-2 0.08-2.99 0.16c-1 0.08-1.99 0.19-2.98 0.32c-0.99 0.13-1.98 0.3-2.96 0.48c-1.51 0.31-3.02 0.63-4.53 0.97c-1.51 0.34-3.01 0.71-4.5 1.09c-1.5 0.38-2.99 0.78-4.47 1.2c-1.49 0.42-2.97 0.86-4.44 1.31c0 0 10.42-3.56 11.34-9.17c0.29-1.74 0.54-3.5 0.74-5.25c0.21-1.76 0.37-3.52 0.49-5.28c0.12-1.76 0.2-3.53 0.24-5.3c0.04-1.77 0.03-3.54-0.02-5.3c-2.84 3.51-5.91 3.66-5.57 3.41c0.34-0.25 0.66-0.51 0.96-0.8c0.3-0.29 0.58-0.59 0.85-0.91c0.26-0.32 0.51-0.66 0.72-1.01c0.22-0.35 0.42-0.72 0.59-1.1c0.34-0.54 0.61-1.12 0.81-1.73c0.2-0.61 0.32-1.23 0.37-1.87c0.05-0.64 0.02-1.27-0.08-1.9c-0.1-0.63-0.28-1.24-0.53-1.83c-2.1-5.73-13.29-17.02-13.29-17.02c0 0 10.71 9.84 17.58 12.9zm212.74-11.22c0 0-0.01 0.02-0.04 0.05c0.02-0.03 0.04-0.05 0.04-0.05l0.01 0zm-0.04 0.05c-0.67 0.9-10.83 14.53-12.15 21.14c-0.2 1.04-0.31 2.1-0.34 3.16c-0.03 1.06 0.03 2.12 0.17 3.17c0.14 1.05 0.36 2.09 0.67 3.1c0.3 1.01 0.69 2 1.15 2.96c-0.7-0.42-1.39-0.88-2.05-1.37c-0.66-0.49-1.29-1.01-1.9-1.56c-0.61-0.55-1.18-1.14-1.73-1.75c-0.55-0.61-1.06-1.25-1.55-1.91c-3-4.26 2.23-8.87-4.79-10.44c-2.27-0.51-4 1.68-4 4.62c0 8.47 14.32 10.84 15.01 17.21c0.69 6.38-1.12 4.23-1.69 7.8c-0.55 3.45 6.88 9.82 6.88 9.82c0 0-8.28-4.5-11.83-5.67c-0.79-0.26-1.6-0.48-2.42-0.66c-0.82-0.17-1.64-0.3-2.48-0.39c-0.83-0.08-1.67-0.12-2.5-0.11c-0.84 0.01-1.67 0.06-2.5 0.16c-0.36 0.01-0.71 0.08-1.05 0.2c-0.34 0.13-0.65 0.31-0.92 0.53c-0.28 0.23-0.51 0.5-0.7 0.81c-0.19 0.31-0.32 0.64-0.39 0.99c0 0-0.71-10.63 1.33-14.34c-0.29 0.04-0.58 0.13-0.84 0.27c-0.26 0.14-0.49 0.33-0.69 0.55c-0.19 0.22-0.34 0.48-0.44 0.76c-0.1 0.28-0.15 0.57-0.14 0.87c-0.54 4.69 0.4 12.76 0.4 12.76c0 0-0.61-3.83-2.1-5.19c-1.49-1.36-3.62 0.97-3.62 0.97c-2.02 1.67-4.74 1.83-7.52 1.83c-7.58 0-12.28-6.84-12.28-16.79c0-9.03 5.59-18.58 15.73-18.58l9.36-3.47c-0.25 0.74-0.46 1.5-0.64 2.27c-0.18 0.76-0.32 1.54-0.43 2.32c-0.11 0.78-0.18 1.56-0.21 2.35c-0.04 0.78-0.03 1.57 0 2.36c0.24 4.29 2.16 9.16 2.86 10.85c0.73 1.41 3.2 3.65 5.06 5.46c0.51 0.5 1.04 0.99 1.57 1.47c0.53 0.48 1.07 0.95 1.62 1.41c0.55 0.46 1.11 0.91 1.68 1.34c0.57 0.44 1.14 0.86 1.73 1.28c0.12 0.12 0.25 0.22 0.4 0.3c0.15 0.08 0.31 0.13 0.48 0.16c0.17 0.03 0.34 0.03 0.5 0c0.17-0.03 0.33-0.08 0.48-0.16c0.03-0.13 0.06-0.26 0.09-0.4c0.03-0.13 0.05-0.27 0.06-0.4c0.02-0.13 0.03-0.27 0.04-0.4c0.01-0.13 0.02-0.27 0.02-0.4c0-9.64-14.01-5.23-14.01-16.99c0-4.82 2.9-9.4 9.13-9.4c0.67-0.01 1.35-0.06 2.02-0.15c0.67-0.09 1.33-0.22 1.99-0.39c0.65-0.17 1.3-0.38 1.92-0.62c0.63-0.25 1.24-0.53 1.84-0.85c3.96-2.08 13.05-12.09 13.74-12.85zm-96.64 15.7c-0.3 0-0.6 0.01-0.9 0.03c-0.3 0.02-0.6 0.06-0.89 0.1c-0.3 0.05-0.59 0.1-0.88 0.17c-0.29 0.07-0.58 0.15-0.87 0.25c-1.33 0.42-2.33 0.89-2.42 2.18c0.06 0.57 0.13 1 0.21 1.45c3.12 4.27 10.76 7.69 13.89 9.32c-0.22-0.76-0.45-1.53-0.7-2.28c-0.24-0.76-0.49-1.51-0.76-2.26c-0.26-0.75-0.54-1.5-0.82-2.24c-0.28-0.74-0.58-1.48-0.88-2.22c-0.22-0.49-0.49-0.96-0.8-1.4c-0.31-0.44-0.66-0.85-1.05-1.23c-0.39-0.38-0.81-0.71-1.26-1.01c-0.45-0.3-0.93-0.55-1.42-0.76c-0.04-0.01-0.07-0.02-0.11-0.03c-0.04-0.01-0.07-0.02-0.11-0.02c-0.04-0.01-0.08-0.01-0.11-0.02c-0.04-0.01-0.08-0.01-0.11-0.02v0zm-72.11 0.88c-0.26 0.03-0.51 0.07-0.77 0.11c-0.26 0.05-0.51 0.1-0.76 0.16c-0.25 0.06-0.5 0.13-0.75 0.21c-0.25 0.08-0.49 0.16-0.73 0.25c-0.04 0.01-0.08 0.04-0.12 0.05c-0.42 0.24-0.84 0.5-1.24 0.76c-0.41 0.26-0.81 0.54-1.2 0.82c-0.39 0.28-0.78 0.58-1.16 0.88c-0.38 0.3-0.75 0.62-1.12 0.94c-4.29 3.98-6.19 5.95-6.5 8.88c-0.12 1.16 1.16 2.04 2.72 3.22c0.17 0.08 0.34 0.14 0.51 0.19c0.17 0.05 0.35 0.1 0.53 0.13c0.18 0.03 0.36 0.05 0.54 0.06c0.18 0.01 0.37 0 0.55-0.02c0.03-0.01 0.06-0.01 0.09-0.02c0.03-0.01 0.06-0.01 0.09-0.02c0.03-0.01 0.06-0.02 0.09-0.02c0.03-0.01 0.06-0.02 0.09-0.03c5.43-2.13 12.14-8.29 14.29-10.16c2.28-1.98 4.46-1.55 3.55-4.22c-0.02-0.01-0.03-0.04-0.05-0.05c-0.42-0.19-0.85-0.36-1.28-0.53c-0.43-0.16-0.86-0.32-1.3-0.46c-0.44-0.14-0.88-0.28-1.32-0.4c-0.44-0.12-0.89-0.23-1.34-0.33c-0.28-0.07-0.56-0.14-0.84-0.19c-0.28-0.05-0.57-0.1-0.85-0.14c-0.29-0.04-0.57-0.06-0.86-0.08c-0.29-0.02-0.57-0.02-0.86-0.02l0 0.01zm124.55 0.43c-4.25 0-6.57 4.1-6.57 12.06c0 7.81 0.14 16.98 7.63 16.98c0.84 0 6.38 0.9 5.69-4.02c-0.69-4.91-1.72-6.34-3.85-7.94c-3.48-2.61-5.33-2.98-5.65-3.03c0.81 0.1 11.1 1.43 15.4 3.2c0.41 0.17 0.82 0.35 1.22 0.55c0.4 0.2 0.79 0.42 1.18 0.64c0.38 0.23 0.76 0.47 1.13 0.73c0.37 0.26 0.72 0.53 1.07 0.81c1.94 1.42 3.88 4.94 3.88 4.94c-2.01-2.95-4.97-5.38-5.21 0.52c0 0.05 0 0.1-0.01 0.15c0 0.05 0 0.1 0 0.15c0 0.05 0 0.1 0 0.15c0 0.05 0 0.1 0.01 0.15c0.27 3.86 4.92 3.81 7.8 3.81c0.17-0.01 0.35-0.04 0.52-0.07c0.17-0.04 0.34-0.09 0.5-0.16c0.16-0.07 0.32-0.15 0.47-0.24c0.15-0.09 0.29-0.2 0.42-0.31c-0.03-0.09-0.09-0.21-0.1-0.23c-0.16-0.29-0.32-0.58-0.49-0.86c-0.17-0.28-0.35-0.56-0.53-0.84c-0.18-0.28-0.37-0.55-0.57-0.81c-0.2-0.27-0.4-0.53-0.6-0.79c-0.2-0.26-0.39-0.51-0.6-0.76c-0.2-0.25-0.41-0.5-0.62-0.75c-0.21-0.25-0.42-0.49-0.63-0.73c-0.21-0.24-0.43-0.48-0.65-0.71c-1.24-1.34-2.83-2.98-4.08-4.3c-0.52-0.56-1.08-1.09-1.62-1.63c-0.26-0.26-2.36-1.55-2.64-1.83l-0.03-0.03c-0.47-0.29-0.93-0.6-1.38-0.93c-0.45-0.33-0.89-0.67-1.31-1.03c-0.43-0.36-0.84-0.73-1.24-1.12c-0.4-0.39-0.78-0.79-1.15-1.2c-3.35-3.71-2.62-10.54-7.38-10.54l-0.01 0zm-2.79 14.05c0 0 0.02 0 0.05 0.01c-0.03 0-0.05-0.01-0.05-0.01zm-13.81-10.67c1.56-3.45-2.87-0.99-3-0.96c-0.13 0.03-0.04 0.01-0.21 0.05c-1.75 0.4-4.53 1.94-5.41 3.5c-2.11 3.7-2.67 2.89-3.24 6.02c-0.37 2.02 0.05 3.67-0.19 6.23c-0.24 2.56-0.58 5.58 1.66 7.35c2.24 1.77 4.22 0.66 6.62-0.53c2.13-1.06 0.91-6.43 1.56-9.63c0.74-10.3 0.66-8.58 2.22-12.03l0 0zm-93.54 3.74c-0.19 0-0.39 0.01-0.58 0.03c-0.19 0.02-0.38 0.06-0.57 0.12c-0.19 0.05-0.37 0.12-0.54 0.2c-0.18 0.08-0.35 0.18-0.51 0.28c-2.21 1.36-3.54 9.58-3.54 9.58c0 0 5.71 0.34 7.38-5.06c0.92-2.98 0.41-5.04-1.64-5.15l0 0zm55.81 0.4c-0.13-0.01-0.25-0.01-0.38-0.01c-0.13 0.01-0.25 0.02-0.38 0.05c-0.12 0.03-0.25 0.06-0.37 0.11c-0.12 0.04-0.23 0.1-0.34 0.16c0.4 0.44 0.78 0.9 1.14 1.37c0.36 0.48 0.69 0.97 1 1.48c0.31 0.51 0.6 1.03 0.86 1.56c0.26 0.53 0.5 1.08 0.71 1.64c0.37 0.88 0.69 1.78 0.96 2.7c0.26 0.92 0.47 1.86 0.61 2.8c0.15 0.95 0.23 1.9 0.26 2.86c0.03 0.96 0 1.91-0.09 2.87c0 0 1.22-6.29 2.66-9.15c0.12-0.28 0.27-0.55 0.45-0.8c0.17-0.25 0.37-0.49 0.59-0.7c0.22-0.22 0.45-0.41 0.7-0.58c0.25-0.17 0.52-0.32 0.8-0.44c-2.37-2-6.33-5.68-9.18-5.91l0 0zm-68.19 3.43c-3.13 1.44-9.27 4.22-10.87 7.45c0.53 0.58 1.02 1.2 1.47 1.86c0.44 0.65 0.84 1.34 1.18 2.05c0.34 0.71 0.64 1.45 0.87 2.2c0.24 0.75 0.42 1.52 0.54 2.3c0.72 3.77 1.59 4.36 3.06 3.99c3.04-0.76 3.33-0.7 4.76-9.81c0.86-5.47 2.78-8.65 4.22-11.82c-1.61 0.73-3.66 1.04-5.25 1.78zm-43.33 7.2c0 0-0.47 5.98 0.89 7.99c2.79 0.54 7.09-3.26 7.96-7.31c0.02-0.2 0.01-0.41-0.02-0.61c-0.03-0.2-0.09-0.4-0.18-0.59c-0.08-0.19-0.19-0.36-0.32-0.52c-0.13-0.16-0.28-0.3-0.44-0.42c-0.06-0.04-0.12-0.07-0.19-0.1c-0.07-0.03-0.13-0.06-0.2-0.08c-0.07-0.02-0.14-0.04-0.21-0.05c-0.07-0.01-0.14-0.02-0.21-0.03c-2.3-0.24-7.07 1.73-7.07 1.73zm159.16-55.43l0.03 0.34c-0.01-0.11-0.01-0.22-0.03-0.34z" />
		</g>
	</g>
</svg>